<svg id="Layer_1" data-name="Layer 1" xmlns="http://www.w3.org/2000/svg" viewBox="0 0 294.33 170"><defs><style>.cls-1,.cls-4,.cls-5,.cls-7,.cls-9{fill:#231f20;}.cls-1,.cls-2,.cls-4{stroke:#231f20;}.cls-1,.cls-2,.cls-4,.cls-6,.cls-7{stroke-miterlimit:10;}.cls-1,.cls-2,.cls-6,.cls-7{stroke-width:6px;}.cls-2,.cls-6{fill:none;}.cls-3,.cls-8{fill:#fff;}.cls-6,.cls-7{stroke:#fff;}.cls-8,.cls-9{font-size:12px;font-family:Courier New;font-weight:700;}</style></defs><title>NPlogo4</title><circle class="cls-1" cx="85" cy="85" r="82"/><path class="cls-2" d="M287.9,485.4a82,82,0,1,1-18.64,52.06A81.84,81.84,0,0,1,287.9,485.4" transform="translate(-141.93 -452.45)"/><circle class="cls-2" cx="211.95" cy="84.46" r="13.1"/><circle class="cls-2" cx="211.7" cy="84.3" r="21.97"/><rect class="cls-3" x="327.21" y="530.22" width="9.94" height="3.03" transform="translate(522.43 611.02) rotate(-180)"/><rect class="cls-3" x="327.21" y="541.56" width="9.94" height="3.03" transform="translate(522.43 633.69) rotate(-180)"/><circle class="cls-4" cx="211.95" cy="84.3" r="6.43"/><rect class="cls-4" x="226.42" y="533.3" width="114.36" height="8.31" transform="translate(425.28 622.45) rotate(-180)"/><path class="cls-5" d="M292.83,536.36v-1.25a2.5,2.5,0,0,0-5,0v1.25a2.5,2.5,0,0,0,5,0h0Z" transform="translate(-141.93 -452.45)"/><path class="cls-6" d="M289.1,484c-25.35,29.77-28.35,72.77,0,106.95" transform="translate(-141.93 -452.45)"/><circle class="cls-7" cx="84.4" cy="84.46" r="13.1"/><rect class="cls-5" x="123.19" y="77.32" width="9.13" height="2.89"/><rect class="cls-5" x="122.77" y="89.64" width="9.13" height="2.8"/><rect class="cls-3" x="99.68" y="80.21" width="69.98" height="9.43"/><text class="cls-8" transform="translate(67.57 28.3)">NET</text><text class="cls-9" transform="translate(182.07 28.3)">PROPHET</text></svg>