<svg id="Layer_1" data-name="Layer 1" xmlns="http://www.w3.org/2000/svg" viewBox="0 0 294.33 170"><defs><style>.cls-4,.cls-5{fill:#231f20}.cls-2,.cls-4{stroke:#231f20;stroke-miterlimit:10}.cls-2{stroke-width:6px;fill:none}.cls-3{fill:#fff}</style></defs><circle cx="85" cy="85" r="82" stroke-width="6" stroke-miterlimit="10" stroke="#231f20" fill="#231f20"/><path class="cls-2" d="M287.9 485.4a82 82 0 1 1-18.64 52.06 81.84 81.84 0 0 1 18.64-52.06" transform="translate(-141.93 -452.45)"/><circle class="cls-2" cx="211.95" cy="84.46" r="13.1"/><circle class="cls-2" cx="211.7" cy="84.3" r="21.97"/><path class="cls-3" transform="rotate(-180 261.215 305.51)" d="M327.21 530.22h9.94v3.03h-9.94z"/><path class="cls-3" transform="rotate(-180 261.215 316.845)" d="M327.21 541.56h9.94v3.03h-9.94z"/><circle class="cls-4" cx="211.95" cy="84.3" r="6.43"/><path class="cls-4" transform="rotate(-180 212.64 311.225)" d="M226.42 533.3h114.36v8.31H226.42z"/><path class="cls-5" d="M292.83 536.36v-1.25a2.5 2.5 0 0 0-5 0v1.25a2.5 2.5 0 0 0 5 0z" transform="translate(-141.93 -452.45)"/><path d="M147.17 31.55c-25.35 29.77-28.35 72.77 0 106.95" stroke="#fff" fill="none" stroke-width="6" stroke-miterlimit="10"/><circle cx="84.4" cy="84.46" r="13.1" stroke="#fff" stroke-width="6" stroke-miterlimit="10" fill="#231f20"/><path class="cls-5" d="M123.19 77.32h9.13v2.89h-9.13zm-.42 12.32h9.13v2.8h-9.13z"/><path class="cls-3" d="M99.68 80.21h69.98v9.43H99.68z"/><text transform="translate(67.57 28.3)" font-size="12" font-family="Courier New" font-weight="700" fill="#fff">NET</text><text transform="translate(182.07 28.3)" font-size="12" font-family="Courier New" font-weight="700" fill="#231f20">PROPHET</text></svg>